<svg width="128" height="128" viewBox="0 0 128 128" fill="none" xmlns="http://www.w3.org/2000/svg">
<rect width="128" height="128" fill="#111346"/>
<path d="M10.7326 37.8454C9.95024 33.1583 13.0287 28.6656 17.6086 27.8106L96.5544 13.0734C101.134 12.2184 105.481 15.325 106.264 20.0121L115.215 73.6354C115.997 78.3226 112.919 82.8153 108.339 83.6702L29.393 98.4074C24.8131 99.2624 20.4661 96.1558 19.6837 91.4687L10.7326 37.8454Z" fill="#FFCD03"/>
<path d="M55.6613 40.9677C55.6613 40.2198 55.0202 39.5786 54.2722 39.5786C53.8448 39.5786 53.5242 39.6855 53.3105 40.006L50.2117 42.998C49.998 43.3185 49.8911 43.6391 49.8911 43.9597C49.8911 44.7077 50.4254 45.3488 51.1734 45.3488L53.0968 45.3488C53.5242 45.3488 53.8448 45.2419 54.0585 44.9214L55.2339 43.8528C55.4476 43.5323 55.5544 43.2117 55.5544 42.8911L55.5544 40.9677L55.6613 40.9677ZM62.5 29C47.8609 29 36 40.8609 36 55.5C36 70.1391 47.8609 82 62.5 82C77.1391 82 89 70.1391 89 55.5C89 40.8609 77.1391 29 62.5 29ZM67.629 78.0464L67.629 74.3064C67.629 71.5282 65.2782 69.1774 62.5 69.1774L60.256 69.1774C59.8286 69.1774 58.8669 68.8568 58.5464 68.6431L56.1956 66.8266C55.875 66.6129 55.6613 66.1855 55.6613 65.7581L55.6613 63.1935C55.6613 62.6593 55.875 62.2319 56.3024 61.9113L60.8972 59.1331C61.1109 59.0262 61.3246 58.9194 61.6452 58.9194L64.9577 58.9194C65.2782 58.9194 65.5988 59.1331 65.9194 59.3468L71.4758 64.0484L74.6814 64.0484L76.6048 65.9718C77.5665 66.9335 78.9556 67.4677 80.3448 67.4677L82.1613 67.4677C78.9556 72.8105 73.7198 76.6573 67.629 78.0464ZM83.871 64.0484L80.3448 64.0484C79.8105 64.0484 79.3831 63.9415 78.9556 63.5141L77.1391 61.6976C76.498 61.0564 75.6431 60.629 74.6814 60.629L72.7581 60.629L68.1633 56.6754C67.3085 55.9274 66.1331 55.5 64.9577 55.5L61.6452 55.5C60.7903 55.5 59.9355 55.8206 59.1875 56.248L54.5927 59.0262C53.0968 59.881 52.2419 61.4839 52.2419 63.1935L52.2419 65.7581C52.2419 67.254 52.8831 68.6431 54.1653 69.6048L56.5161 71.4214C57.4778 72.0625 59.1875 72.5968 60.256 72.5968L62.5 72.5968C63.3548 72.5968 64.2097 73.4516 64.2097 74.3064L64.2097 78.5806C63.5685 78.5806 63.0343 78.5806 62.5 78.5806C49.7843 78.5806 39.4194 68.3226 39.4194 55.5C39.4194 42.8911 49.6774 32.5262 62.3931 32.4194L60.7903 33.7016C59.6149 34.4496 59.0806 35.7319 59.0806 37.0141L59.0806 39.4718C59.0806 40.2198 59.4012 41.2883 59.6149 41.8226C59.6149 42.1431 57.371 43.4254 57.0504 43.8528C56.0887 44.8145 55.6613 45.9899 55.6613 47.2722L55.6613 48.9819C55.6613 51.6532 57.7984 53.8972 60.4698 53.8972L63.1411 53.8972C64.3165 53.8972 65.3851 53.4698 66.2399 52.7218C66.6673 52.9355 67.2016 52.9355 67.629 52.9355L69.0181 52.9355C71.7964 52.9355 72.5444 50.7984 72.9718 50.6915C73.506 51.6532 74.3609 52.4012 75.4294 52.7218C75.002 54.3246 75.3226 56.0343 76.498 57.2097L78.4214 59.2399C79.3831 60.2016 80.6653 60.7359 81.9476 60.7359L84.9395 60.7359C84.6189 61.9113 84.2984 62.9798 83.871 64.0484ZM81.9476 57.3165C81.627 57.3165 81.1996 57.1028 80.9859 56.8891L78.9556 54.752C78.8488 54.6452 78.6351 54.3246 78.6351 54.1109C78.6351 53.7903 78.8488 53.4698 78.9556 53.256C80.3448 51.9738 80.131 52.4012 80.131 51.4395C80.131 51.119 80.0242 50.9052 79.8105 50.6915L78.9556 49.8367C78.7419 49.623 78.5282 49.5161 78.2077 49.5161L76.8185 49.5161C75.8569 49.5161 75.4294 48.4476 76.0706 47.8064L76.9254 47.0585C77.1391 46.8448 77.3528 46.7379 77.6734 46.7379L78.5282 46.7379C79.0625 46.7379 79.5968 46.3105 79.5968 45.6694L79.5968 44.6008C79.5968 44.0665 79.0625 43.6391 78.5282 43.6391L75.5363 43.6391C74.7883 43.6391 74.1472 44.2802 74.1472 45.0282L74.1472 45.6694C74.1472 46.3105 73.7198 46.8448 73.0786 46.9516L70.3004 47.9133C69.873 48.127 69.7661 48.4476 69.7661 48.7681C69.7661 49.1956 69.4456 49.5161 69.125 49.5161L67.629 49.5161C67.2016 49.5161 66.881 49.1956 66.881 48.7681C66.881 47.9133 65.5988 47.9133 65.2782 48.4476C64.3165 49.8367 64.1028 50.4778 63.1411 50.4778L60.4698 50.4778C59.7218 50.4778 59.0806 49.8367 59.0806 48.9819L59.0806 47.2722C59.0806 46.8448 59.1875 46.5242 59.4012 46.2036C61.5383 44.7077 62.6069 44.3871 62.6069 42.8911C62.6069 42.5706 62.8206 42.25 63.1411 42.1431L66.6673 40.9677C66.881 40.9677 66.9879 40.8609 67.0948 40.754L69.4456 38.2964C69.9798 37.7621 69.873 36.8004 68.8044 36.8004L66.881 36.8004L65.4919 38.7238L65.4919 39.4718C65.4919 39.8992 65.1714 40.2198 64.7439 40.2198L63.1411 40.2198C62.8206 40.2198 62.5 39.8992 62.5 39.4718L62.5 37.0141C62.5 36.8004 62.6069 36.5867 62.7137 36.4798L67.4153 33.0605C77.7802 35.3044 85.5806 44.4939 85.5806 55.5C85.5806 56.1411 85.4738 56.6754 85.4738 57.3165L81.9476 57.3165Z" fill="#18214D"/>
<path d="M35.5235 98.4826C34.2047 97.5306 33.8926 95.6425 34.8264 94.2654L44.0692 80.6348C45.003 79.2577 46.8291 78.9131 48.1479 79.8652L61.2017 89.2886C62.5205 90.2406 62.8326 92.1287 61.8988 93.5058L52.656 107.136C51.7222 108.513 49.8961 108.858 48.5773 107.906L35.5235 98.4826Z" fill="#FFCD03"/>
</svg>
